<?xml version="1.0" encoding="iso-8859-1"?>
<!-- Generator: Adobe Illustrator 19.0.0, SVG Export Plug-In . SVG Version: 6.00 Build 0)  -->
<svg version="1.1" id="Layer_1" xmlns="http://www.w3.org/2000/svg" xmlns:xlink="http://www.w3.org/1999/xlink" x="0px" y="0px"
	 viewBox="0 0 512 512" style="enable-background:new 0 0 512 512;" xml:space="preserve">
<path style="fill:#25B6D2;" d="M401.392,171.232H432c44,0,80,35.936,80,79.872v15.968c0,43.92-36,79.872-80,79.872H80
	c-44,0-80-35.936-80-79.872v-15.968c0-40.96,31.424-74.592,71.328-78.992c-0.784-5.52-1.328-11.12-1.328-16.848
	c0-65.616,53.28-118.8,118.992-118.8c50.464,0,93.488,31.424,110.8,75.68c0,0,26.672-12.24,60.016-0.448
	C401.264,126.368,401.392,171.232,401.392,171.232z"/>
<path d="M419.984,456.248V234.424c0-5.304-4.336-9.648-9.648-9.648H101.792c-5.304,0-9.648,4.336-9.648,9.648V456.24
	C92.144,456.248,420.792,456.248,419.984,456.248z"/>
<rect x="106.616" y="237.64" style="fill:#E04F5F;" width="298.88" height="218.608"/>
<rect x="63.112" y="456.24" style="fill:#E2E2E2;" width="385.76" height="6.432"/>
<polygon style="fill:#C9C9C9;" points="429.6,475.536 82.4,475.536 63.112,462.68 448.888,462.68 "/>
<g>
	<rect x="151.168" y="298.88" style="fill:#FFFFFF;" width="209.68" height="8"/>
	<rect x="151.168" y="339.728" style="fill:#FFFFFF;" width="209.68" height="8"/>
	<rect x="151.168" y="380.552" style="fill:#FFFFFF;" width="209.68" height="8"/>
</g>
<g>
</g>
<g>
</g>
<g>
</g>
<g>
</g>
<g>
</g>
<g>
</g>
<g>
</g>
<g>
</g>
<g>
</g>
<g>
</g>
<g>
</g>
<g>
</g>
<g>
</g>
<g>
</g>
<g>
</g>
</svg>
